<svg width="32" height="32" viewBox="0 0 40 40" fill="none" xmlns="http://www.w3.org/2000/svg">
  <circle cx="20" cy="20" r="18" stroke="#141210" stroke-width="1.5"/>
  <circle cx="12" cy="12" r="2.2" fill="#141210"/>
  <circle cx="20" cy="12" r="2.2" fill="#141210"/>
  <circle cx="28" cy="12" r="2.2" fill="#141210"/>
  <circle cx="12" cy="20" r="2.2" fill="#141210"/>
  <circle cx="20" cy="20" r="3" fill="#141210"/>
  <circle cx="28" cy="20" r="2.2" fill="#141210"/>
  <circle cx="12" cy="28" r="2.2" fill="#141210"/>
  <circle cx="20" cy="28" r="2.2" fill="#141210"/>
  <circle cx="28" cy="28" r="2.2" fill="#141210"/>
  <line x1="14.2" y1="12" x2="17.8" y2="12" stroke="#141210" stroke-width="0.8"/>
  <line x1="22.2" y1="12" x2="25.8" y2="12" stroke="#141210" stroke-width="0.8"/>
  <line x1="14.2" y1="20" x2="17" y2="20" stroke="#141210" stroke-width="0.8"/>
  <line x1="23" y1="20" x2="25.8" y2="20" stroke="#141210" stroke-width="0.8"/>
  <line x1="14.2" y1="28" x2="17.8" y2="28" stroke="#141210" stroke-width="0.8"/>
  <line x1="22.2" y1="28" x2="25.8" y2="28" stroke="#141210" stroke-width="0.8"/>
  <line x1="12" y1="14.2" x2="12" y2="17.8" stroke="#141210" stroke-width="0.8"/>
  <line x1="20" y1="14.2" x2="20" y2="17" stroke="#141210" stroke-width="0.8"/>
  <line x1="28" y1="14.2" x2="28" y2="17.8" stroke="#141210" stroke-width="0.8"/>
  <line x1="12" y1="22.2" x2="12" y2="25.8" stroke="#141210" stroke-width="0.8"/>
  <line x1="20" y1="23" x2="20" y2="25.8" stroke="#141210" stroke-width="0.8"/>
  <line x1="28" y1="22.2" x2="28" y2="25.8" stroke="#141210" stroke-width="0.8"/>
</svg>
